<svg width="136" height="18" viewBox="0 0 136 18" fill="none" xmlns="http://www.w3.org/2000/svg">
<path d="M8.584 17.288C12.712 17.288 15.352 14.816 15.352 11.456C15.352 6.824 7.672 6.752 7.672 5.48C7.672 5.12 8.032 4.832 8.656 4.832C10.168 4.832 12.208 5.456 13.528 6.776L16.432 3.416C14.68 1.664 12.064 0.751999 9.448 0.751999C4.888 0.751999 2.584 3.704 2.584 6.488C2.584 11.168 10.24 11.12 10.24 12.464C10.24 12.752 9.88 13.16 8.968 13.16C6.808 13.16 4.552 12.152 3.448 10.712L0.568 14.168C2.152 16.064 5.176 17.288 8.584 17.288ZM32.3268 17L35.8548 0.991999H31.0068L29.2788 8.768L25.4388 0.991999H20.4467L16.9187 17H21.7667L23.5908 8.696L27.6708 17H32.3268ZM48.2628 17L49.1988 12.776H41.9028L42.2868 11.024H49.4148L50.3508 6.8H43.2228L43.5588 5.216H50.8548L51.7908 0.991999H39.6468L36.1188 17H48.2628ZM67.7916 17L65.4156 0.991999H59.3196L49.8876 17H55.6236L56.6076 15.128H62.3676L62.5356 17H67.7916ZM62.0076 10.904H58.8396L61.5516 5.744L62.0076 10.904ZM85.0947 17L80.6787 8.432L88.3587 0.991999H82.1907L76.9827 6.656L78.2307 0.991999H73.3827L69.8547 17H74.7027L75.6867 12.56L76.9587 11.216L79.4307 17H85.0947ZM99.3003 17L100.236 12.776H92.9403L93.3242 11.024H100.452L101.388 6.8H94.2603L94.5963 5.216H101.892L102.828 0.991999H90.6842L87.1562 17H99.3003ZM116.981 17L115.397 11.6C117.485 10.856 119.333 8.672 119.333 5.84C119.333 2.888 116.861 0.991999 113.957 0.991999H106.181L102.653 17H107.501L108.605 11.96H110.549L111.653 17H116.981ZM112.421 7.736H109.541L110.093 5.216H112.973C113.717 5.216 114.317 5.696 114.317 6.368C114.317 7.28 113.549 7.736 112.493 7.736H112.421ZM127.703 17.288C131.831 17.288 134.471 14.816 134.471 11.456C134.471 6.824 126.791 6.752 126.791 5.48C126.791 5.12 127.151 4.832 127.775 4.832C129.287 4.832 131.327 5.456 132.647 6.776L135.551 3.416C133.799 1.664 131.183 0.751999 128.567 0.751999C124.007 0.751999 121.703 3.704 121.703 6.488C121.703 11.168 129.359 11.12 129.359 12.464C129.359 12.752 128.999 13.16 128.087 13.16C125.927 13.16 123.671 12.152 122.567 10.712L119.687 14.168C121.271 16.064 124.295 17.288 127.703 17.288Z" fill="white"/>
</svg>
