<svg width="26" height="44" viewBox="0 0 26 44" fill="none" xmlns="http://www.w3.org/2000/svg">

<rect x="1" y="1" width="24" height="42" rx="12" stroke="white" stroke-width="2"/>

<path d="M13.4778 34.8093L17.8021 30.6432C18.066 30.389 18.066 29.9767 17.8021 29.7225C17.5382 29.4683 17.1104 29.4683 16.8466 29.7225L13.6757 32.7774L13.6757 21.651C13.6757 21.2915 13.3731 21 13 21C12.6269 21 12.3243 21.2915 12.3243 21.651L12.3243 32.7774L9.15346 29.7226C8.88957 29.4684 8.46178 29.4684 8.19789 29.7226C8.06605 29.8497 8 30.0164 8 30.183C8 30.3495 8.06605 30.5161 8.19789 30.6433L12.5222 34.8093C12.7861 35.0636 13.2139 35.0636 13.4778 34.8093Z" fill="white"/>
</svg>
